<?xml version="1.0" encoding="UTF-8" standalone="no"?>
<!DOCTYPE svg PUBLIC "-//W3C//DTD SVG 1.1//EN" "http://www.w3.org/Graphics/SVG/1.1/DTD/svg11.dtd">
<svg width="100%" height="100%" viewBox="0 0 196 26" version="1.1" xmlns="http://www.w3.org/2000/svg" xmlns:xlink="http://www.w3.org/1999/xlink" xml:space="preserve" xmlns:serif="http://www.serif.com/" style="fill-rule:evenodd;clip-rule:evenodd;stroke-linejoin:round;stroke-miterlimit:2;">
    <g transform="matrix(0.944965,0,0,0.944965,-1.9595,-0.0465693)">
        <g transform="matrix(36.2972,0,0,36.2972,0,26)">
            <path d="M0.057,-0L0.057,-0.667L0.354,-0.667C0.506,-0.667 0.583,-0.612 0.583,-0.503C0.583,-0.425 0.536,-0.376 0.444,-0.354C0.555,-0.332 0.611,-0.273 0.611,-0.177C0.611,-0.059 0.536,-0 0.387,-0L0.057,-0ZM0.25,-0.055L0.306,-0.055C0.378,-0.055 0.414,-0.097 0.414,-0.179C0.414,-0.274 0.377,-0.321 0.302,-0.321L0.25,-0.321L0.25,-0.055ZM0.25,-0.376L0.31,-0.376C0.365,-0.376 0.393,-0.417 0.393,-0.499C0.393,-0.574 0.363,-0.611 0.305,-0.611L0.25,-0.611L0.25,-0.376Z" style="fill:rgb(61,70,77);fill-rule:nonzero;"/>
        </g>
        <g transform="matrix(36.2972,0,0,36.2972,22.7921,26)">
            <path d="M0.251,-0.667L0.251,-0.067L0.525,-0.067L0.525,-0L0.058,-0L0.058,-0.667L0.251,-0.667Z" style="fill:rgb(61,70,77);fill-rule:nonzero;"/>
        </g>
        <g transform="matrix(36.2972,0,0,36.2972,52.1241,26)">
            <path d="M0.499,-0.268L0.582,-0.246C0.583,-0.229 0.583,-0.215 0.583,-0.202C0.583,-0.137 0.56,-0.086 0.513,-0.047C0.466,-0.008 0.403,0.011 0.325,0.011C0.127,0.011 0.028,-0.1 0.028,-0.322C0.028,-0.428 0.057,-0.513 0.115,-0.579C0.172,-0.644 0.247,-0.677 0.34,-0.677C0.484,-0.677 0.556,-0.608 0.556,-0.469L0.473,-0.431C0.474,-0.451 0.475,-0.466 0.475,-0.477C0.475,-0.575 0.435,-0.624 0.356,-0.624C0.273,-0.624 0.231,-0.52 0.231,-0.311C0.231,-0.132 0.278,-0.042 0.371,-0.042C0.41,-0.042 0.441,-0.057 0.467,-0.088C0.493,-0.118 0.505,-0.157 0.505,-0.203C0.505,-0.217 0.503,-0.239 0.499,-0.268Z" style="fill:rgb(61,70,77);fill-rule:nonzero;"/>
        </g>
        <g transform="matrix(36.2972,0,0,36.2972,73.8705,26)">
            <path d="M0.271,-0.505C0.434,-0.505 0.515,-0.419 0.515,-0.247C0.515,-0.075 0.434,0.011 0.271,0.011C0.108,0.011 0.026,-0.075 0.026,-0.247C0.026,-0.419 0.108,-0.505 0.271,-0.505ZM0.271,-0.461C0.231,-0.461 0.211,-0.39 0.211,-0.247C0.211,-0.104 0.231,-0.033 0.271,-0.033C0.31,-0.033 0.33,-0.104 0.33,-0.247C0.33,-0.39 0.31,-0.461 0.271,-0.461Z" style="fill:rgb(61,70,77);fill-rule:nonzero;"/>
        </g>
        <g transform="matrix(36.2972,0,0,36.2972,93.5078,26)">
            <path d="M0.226,-0.676L0.226,-0L0.048,-0L0.048,-0.667C0.097,-0.667 0.156,-0.67 0.226,-0.676Z" style="fill:rgb(61,70,77);fill-rule:nonzero;"/>
        </g>
        <g transform="matrix(36.2972,0,0,36.2972,103.468,26)">
            <path d="M0.226,-0.676L0.226,-0L0.048,-0L0.048,-0.667C0.097,-0.667 0.156,-0.67 0.226,-0.676Z" style="fill:rgb(61,70,77);fill-rule:nonzero;"/>
        </g>
        <g transform="matrix(36.2972,0,0,36.2972,113.429,26)">
            <path d="M0.402,-0.18L0.474,-0.159C0.466,-0.046 0.399,0.011 0.272,0.011C0.108,0.011 0.026,-0.071 0.026,-0.234C0.026,-0.314 0.048,-0.379 0.092,-0.43C0.135,-0.48 0.191,-0.506 0.259,-0.506C0.402,-0.506 0.473,-0.414 0.473,-0.23L0.213,-0.23C0.213,-0.102 0.246,-0.037 0.311,-0.037C0.372,-0.037 0.403,-0.074 0.403,-0.146C0.403,-0.156 0.403,-0.167 0.402,-0.18ZM0.212,-0.286L0.319,-0.286C0.319,-0.4 0.302,-0.458 0.267,-0.458C0.236,-0.458 0.218,-0.415 0.214,-0.33L0.212,-0.286Z" style="fill:rgb(61,70,77);fill-rule:nonzero;"/>
        </g>
        <g transform="matrix(36.2972,0,0,36.2972,131.56,26)">
            <path d="M0.399,-0.22L0.474,-0.197L0.475,-0.177C0.475,-0.052 0.406,0.011 0.27,0.011C0.107,0.011 0.026,-0.071 0.026,-0.236C0.026,-0.318 0.05,-0.384 0.097,-0.433C0.144,-0.482 0.208,-0.506 0.287,-0.506C0.401,-0.506 0.458,-0.455 0.458,-0.351L0.375,-0.311L0.376,-0.357C0.376,-0.428 0.352,-0.463 0.305,-0.463C0.243,-0.463 0.211,-0.394 0.211,-0.256C0.211,-0.171 0.218,-0.112 0.231,-0.08C0.245,-0.049 0.27,-0.033 0.306,-0.033C0.372,-0.033 0.405,-0.076 0.405,-0.161C0.405,-0.173 0.403,-0.193 0.399,-0.22Z" style="fill:rgb(61,70,77);fill-rule:nonzero;"/>
        </g>
        <g transform="matrix(36.2972,0,0,36.2972,149.265,26)">
            <path d="M0.315,-0.491L0.315,-0.436L0.236,-0.436L0.236,-0.087C0.236,-0.066 0.243,-0.055 0.257,-0.055C0.267,-0.055 0.273,-0.062 0.275,-0.077L0.326,-0.072C0.312,-0.02 0.268,0.005 0.192,0.005C0.103,0.005 0.058,-0.033 0.058,-0.109L0.058,-0.436L-0.001,-0.436L-0.001,-0.491L0.058,-0.491L0.058,-0.578C0.12,-0.595 0.179,-0.619 0.236,-0.651L0.236,-0.491L0.315,-0.491Z" style="fill:rgb(61,70,77);fill-rule:nonzero;"/>
        </g>
        <g transform="matrix(36.2972,0,0,36.2972,160.98,26)">
            <path d="M0.142,-0.683C0.197,-0.683 0.225,-0.662 0.225,-0.619C0.225,-0.576 0.197,-0.554 0.142,-0.554C0.086,-0.554 0.059,-0.576 0.059,-0.619C0.059,-0.662 0.086,-0.683 0.142,-0.683ZM0.051,-0L0.051,-0.492C0.107,-0.492 0.166,-0.496 0.229,-0.505L0.229,-0L0.051,-0Z" style="fill:rgb(61,70,77);fill-rule:nonzero;"/>
        </g>
        <g transform="matrix(36.2972,0,0,36.2972,171.171,26)">
            <path d="M0.271,-0.505C0.434,-0.505 0.515,-0.419 0.515,-0.247C0.515,-0.075 0.434,0.011 0.271,0.011C0.108,0.011 0.026,-0.075 0.026,-0.247C0.026,-0.419 0.108,-0.505 0.271,-0.505ZM0.271,-0.461C0.231,-0.461 0.211,-0.39 0.211,-0.247C0.211,-0.104 0.231,-0.033 0.271,-0.033C0.31,-0.033 0.33,-0.104 0.33,-0.247C0.33,-0.39 0.31,-0.461 0.271,-0.461Z" style="fill:rgb(61,70,77);fill-rule:nonzero;"/>
        </g>
        <g transform="matrix(36.2972,0,0,36.2972,190.808,26)">
            <path d="M0.515,-0L0.336,-0L0.336,-0.361C0.336,-0.398 0.326,-0.417 0.306,-0.417C0.285,-0.417 0.267,-0.402 0.251,-0.373C0.236,-0.344 0.229,-0.309 0.229,-0.27L0.229,-0L0.05,-0L0.05,-0.493C0.111,-0.493 0.171,-0.497 0.229,-0.505L0.229,-0.413C0.273,-0.474 0.327,-0.505 0.391,-0.505C0.473,-0.505 0.515,-0.463 0.515,-0.379L0.515,-0Z" style="fill:rgb(61,70,77);fill-rule:nonzero;"/>
        </g>
    </g>
</svg>
