<?xml version="1.0" encoding="UTF-8"?>
<!DOCTYPE svg PUBLIC "-//W3C//DTD SVG 1.1//EN" "http://www.w3.org/Graphics/SVG/1.1/DTD/svg11.dtd">
<!-- Creator: CorelDRAW 2021 (64-Bit) -->
<svg xmlns="http://www.w3.org/2000/svg" xml:space="preserve" width="210mm" height="297mm" version="1.1" style="shape-rendering:geometricPrecision; text-rendering:geometricPrecision; image-rendering:optimizeQuality; fill-rule:evenodd; clip-rule:evenodd"
viewBox="0 0 21000 29700"
 xmlns:xlink="http://www.w3.org/1999/xlink"
 xmlns:xodm="http://www.corel.com/coreldraw/odm/2003">
 <defs>
  <style type="text/css">
   <![CDATA[
    .fil1 {fill:#0C3A66}
    .fil0 {fill:black;fill-rule:nonzero}
   ]]>
  </style>
 </defs>
 <g id="Layer_x0020_1">
  <metadata id="CorelCorpID_0Corel-Layer"/>
  <path class="fil0" d="M2668.33 15244.07l104.66 -577.97 1014.9 -89.43 500.52 -2763.88 -982.34 -90.41 105.19 -580.86 998.71 0 3354.61 0c1210.63,0 2137.97,95.21 2782.26,284.66 641.85,190.41 931.25,472.19 863.15,848.22 -35,193.29 -174.57,366.39 -418.87,520.26 -241.85,152.91 -596.4,268.32 -1059.32,347.17 376.66,36.55 679.04,97.14 904.92,181.76 225.73,85.59 385.04,189.45 478.07,310.62 93.04,121.18 125.7,251.97 100.28,392.37 -72.79,401.99 -441.2,705.87 -1109.54,910.71 -666.06,204.85 -1597.58,306.78 -2794.69,306.78l-4842.51 0zm3452.45 -752.03l1526.24 0c457.67,0 809.56,-38.47 1053.44,-115.41 246.14,-76.93 382.36,-194.25 411.09,-352.93 21.43,-118.3 -5.88,-216.39 -79.72,-294.28 -73.81,-77.9 -198.63,-135.6 -376.52,-174.06 -177.9,-38.47 -417.89,-57.71 -717.74,-57.71l-1636.71 0 -180.08 994.39zm298.5 -1648.33l937.85 0c545.56,0 960.41,-37.51 1244.35,-111.55 283.94,-74.05 442.37,-189.46 470.58,-345.25 30.83,-170.22 -75.05,-295.25 -313.44,-373.13 -238.38,-77.9 -616.93,-116.37 -1130.92,-116.37l-1037.06 0 -171.36 946.3z"/>
  <polygon class="fil0" points="11231.83,15244.09 11336.52,14666.09 12351.41,14576.67 12851.95,11812.78 11869.6,11722.39 11974.78,11141.52 12973.51,11141.52 15291.04,11141.52 16506.19,11141.52 16401.01,11722.39 15169.48,11812.78 14685.35,14486.25 16971.33,14486.25 17128.66,13677.88 18943.11,13677.88 18655.66,15244.09 "/>
  <path class="fil1" d="M2550.51 15714.26l15950.51 0c-73.88,415.81 -138.47,772.82 -189.81,1075.26 -162.82,959.06 -343.77,1370.01 -1670.21,1370.01l-14598.39 0 507.9 -2445.27zm2521.45 1446.28c-28.82,78.26 -65.22,148.98 -109.24,212.14 -44.01,63.16 -95.05,117.4 -153.1,162.7 -58.05,45.32 -122.19,80.32 -192.42,105.04 -70.24,24.72 -145.17,37.07 -224.82,37.07 -89.24,0 -170.01,-15.1 -242.3,-45.3 -72.28,-30.21 -131.28,-75.53 -176.99,-135.94 -45.72,-60.41 -76.96,-134.9 -93.71,-223.47 -16.76,-88.55 -14.79,-191.88 5.89,-309.95 20.2,-115.35 53.17,-219.35 98.92,-312.03 45.76,-92.68 101.68,-170.94 167.79,-234.79 66.1,-63.84 141.63,-112.93 226.6,-147.26 84.96,-34.32 176.18,-51.49 273.66,-51.49 85.13,0 160.14,12.7 225.03,38.1 64.89,25.41 118.49,60.42 160.79,105.04 42.29,44.62 72.91,97.15 91.86,157.56 18.94,60.41 25.82,124.95 20.67,193.6l-286.27 0c-5.52,-78.27 -31.95,-139.03 -79.3,-182.27 -47.35,-43.25 -105.35,-64.88 -174,-64.88 -119.45,0 -214.85,42.91 -286.17,128.73 -71.33,85.8 -120.09,203.55 -146.3,353.2 -26.7,152.42 -19.63,270.84 21.19,355.29 40.82,84.43 116.83,126.65 228.05,126.65 85.13,0 157.47,-22.99 217.02,-68.99 59.54,-45.99 106.49,-112.25 140.87,-198.75l286.28 0zm769.33 516.95c-211.46,0 -362.99,-61.79 -454.63,-185.36 -91.63,-123.57 -117.13,-301.38 -76.49,-533.43 20.2,-115.33 52.77,-219 97.72,-310.99 44.94,-91.99 101.15,-169.91 168.63,-233.76 67.48,-63.85 144.67,-112.59 231.56,-146.22 86.91,-33.65 183.22,-50.47 288.95,-50.47 104.35,0 194.43,16.82 270.23,50.47 75.8,33.63 135.52,82.72 179.14,147.25 43.62,64.53 71.72,143.14 84.33,235.82 12.59,92.68 8.68,197.38 -11.76,314.08 -41.36,236.17 -128.46,413.98 -261.28,533.43 -132.83,119.46 -304.96,179.18 -516.4,179.18zm42.92 -245.09c50.81,0 100.49,-9.27 149.03,-27.8 48.57,-18.54 92.97,-46.68 133.21,-84.44 40.26,-37.76 75.17,-86.16 104.73,-145.2 29.57,-59.04 51.44,-129.07 65.62,-210.08 28.38,-162.02 18.33,-284.9 -30.17,-368.66 -48.49,-83.75 -133.15,-125.63 -253.97,-125.63 -120.83,0 -220.84,41.88 -300.05,125.63 -79.2,83.76 -132.98,206.64 -161.37,368.66 -28.37,162.02 -16.49,280.44 35.61,355.28 52.12,74.83 137.91,112.24 257.36,112.24zm892.94 152.41l239.5 -1367.55 286.27 0 -195.85 1118.34 677.59 0 -43.64 249.21 -963.87 0zm1146.73 0l239.5 -1367.55 286.28 0 -195.86 1118.34 677.6 0 -43.64 249.21 -963.88 0zm1146.72 0l239.49 -1367.55 1005.07 0 -41.84 238.91 -727.03 0 -51.21 292.46 669.36 0 -42.21 240.97 -669.36 0 -61.68 352.18 759.98 0 -42.56 243.03 -1038.01 0zm2587.63 -424.27c-28.83,78.26 -65.23,148.98 -109.25,212.14 -44.01,63.16 -95.04,117.4 -153.1,162.7 -58.05,45.32 -122.19,80.32 -192.42,105.04 -70.23,24.72 -145.17,37.07 -224.81,37.07 -89.24,0 -170.01,-15.1 -242.3,-45.3 -72.29,-30.21 -131.29,-75.53 -176.99,-135.94 -45.73,-60.41 -76.96,-134.9 -93.71,-223.47 -16.76,-88.55 -14.8,-191.88 5.89,-309.95 20.19,-115.35 53.16,-219.35 98.92,-312.03 45.75,-92.68 101.68,-170.94 167.78,-234.79 66.1,-63.84 141.63,-112.93 226.6,-147.26 84.96,-34.32 176.19,-51.49 273.67,-51.49 85.13,0 160.13,12.7 225.02,38.1 64.9,25.41 118.49,60.42 160.8,105.04 42.29,44.62 72.91,97.15 91.85,157.56 18.94,60.41 25.83,124.95 20.67,193.6l-286.28 0c-5.51,-78.27 -31.94,-139.03 -79.28,-182.27 -47.35,-43.25 -105.35,-64.88 -174,-64.88 -119.46,0 -214.85,42.91 -286.18,128.73 -71.32,85.8 -120.08,203.55 -146.3,353.2 -26.69,152.42 -19.62,270.84 21.2,355.29 40.82,84.43 116.83,126.65 228.04,126.65 85.13,0 157.47,-22.99 217.03,-68.99 59.54,-45.99 106.49,-112.25 140.87,-198.75l286.28 0zm433.76 424.27l197.66 -1128.64 -411.91 0 41.84 -238.91 1112.17 0 -41.85 238.91 -413.97 0 -197.66 1128.64 -286.28 0zm1078.96 0l239.49 -1367.55 286.28 0 -239.5 1367.55 -286.27 0zm1214.82 92.68c-211.45,0 -362.99,-61.79 -454.63,-185.36 -91.62,-123.57 -117.12,-301.38 -76.49,-533.43 20.21,-115.33 52.77,-219 97.73,-310.99 44.94,-91.99 101.15,-169.91 168.62,-233.76 67.48,-63.85 144.68,-112.59 231.57,-146.22 86.9,-33.65 183.21,-50.47 288.94,-50.47 104.35,0 194.43,16.82 270.23,50.47 75.8,33.63 135.52,82.72 179.14,147.25 43.62,64.53 71.72,143.14 84.34,235.82 12.59,92.68 8.67,197.38 -11.77,314.08 -41.36,236.17 -128.45,413.98 -261.27,533.43 -132.84,119.46 -304.96,179.18 -516.41,179.18zm42.93 -245.09c50.8,0 100.48,-9.27 149.03,-27.8 48.56,-18.54 92.96,-46.68 133.21,-84.44 40.25,-37.76 75.17,-86.16 104.72,-145.2 29.57,-59.04 51.44,-129.07 65.63,-210.08 28.38,-162.02 18.32,-284.9 -30.17,-368.66 -48.5,-83.75 -133.15,-125.63 -253.97,-125.63 -120.84,0 -220.85,41.88 -300.06,125.63 -79.19,83.76 -132.98,206.64 -161.36,368.66 -28.37,162.02 -16.5,280.44 35.6,355.28 52.13,74.83 137.91,112.24 257.37,112.24zm1743.7 143.14l-424.06 -918.57 -160.86 918.57 -265.69 0 239.5 -1367.55 302.75 0 389.72 879.43 154.02 -879.43 267.73 0 -239.5 1367.55 -263.61 0z"/>
 </g>
</svg>
